<?xml version="1.0" standalone="no"?>
<!DOCTYPE svg PUBLIC "-//W3C//DTD SVG 20010904//EN"
 "http://www.w3.org/TR/2001/REC-SVG-20010904/DTD/svg10.dtd">
<svg version="1.0" xmlns="http://www.w3.org/2000/svg"
 width="1080.000000pt" height="1080.000000pt" viewBox="0 0 1080.000000 1080.000000"
 preserveAspectRatio="xMidYMid meet">
<metadata>
Created by potrace 1.14, written by Peter Selinger 2001-2017
</metadata>
<g transform="translate(0.000000,1080.000000) scale(0.100000,-0.100000)"
fill="#000000" stroke="none">
<path d="M5178 8795 c-1 -2 -39 -6 -82 -9 -44 -3 -94 -8 -110 -11 -17 -2 -47
-7 -66 -9 -162 -23 -467 -94 -577 -135 -29 -11 -53 -17 -53 -14 0 3 -6 0 -14
-6 -8 -7 -22 -14 -32 -16 -11 -2 -48 -15 -84 -30 -93 -37 -98 -39 -172 -74
-37 -17 -72 -31 -78 -31 -5 0 -10 -5 -10 -12 0 -6 -3 -9 -6 -6 -3 4 -36 -11
-72 -32 -37 -20 -77 -40 -89 -44 -13 -4 -23 -11 -23 -16 0 -4 -12 -13 -27 -19
-31 -13 -40 -18 -128 -75 -33 -21 -63 -43 -66 -48 -3 -5 -8 -8 -10 -6 -4 2
-194 -136 -209 -152 -3 -3 -27 -23 -55 -45 -55 -44 -70 -59 -200 -185 -91 -88
-208 -214 -234 -254 -8 -11 -18 -23 -21 -26 -4 -3 -32 -39 -63 -80 -32 -41
-61 -79 -65 -85 -36 -44 -134 -200 -203 -323 -65 -114 -169 -335 -169 -358 0
-8 -4 -14 -10 -14 -5 0 -9 -3 -8 -7 2 -5 -3 -24 -11 -43 -12 -32 -39 -104 -57
-155 -4 -11 -8 -25 -10 -32 -1 -6 -7 -27 -13 -46 -11 -32 -15 -35 -52 -35 -23
-1 -43 -3 -46 -6 -3 -3 -13 -1 -22 4 -10 5 -23 5 -31 0 -9 -5 -19 -5 -27 2 -9
7 -13 7 -13 -1 0 -7 -8 -8 -22 -3 -13 5 -36 6 -53 2 -16 -3 -49 -3 -72 1 -23
3 -48 2 -55 -2 -7 -4 -18 -3 -25 3 -8 6 -13 6 -13 1 0 -6 -18 -7 -45 -3 -25 4
-48 4 -50 0 -2 -4 -25 -4 -49 0 -25 4 -51 3 -58 -1 -7 -4 -18 -3 -25 3 -9 7
-13 7 -13 -1 0 -7 -8 -8 -24 -1 -13 5 -26 6 -29 3 -3 -3 -32 -4 -64 -4 -132 4
-164 3 -170 -3 -3 -3 -12 -1 -20 5 -9 8 -13 8 -13 0 0 -7 -8 -8 -22 -3 -13 5
-36 6 -53 2 -16 -3 -49 -3 -72 1 -23 3 -48 2 -55 -2 -7 -4 -18 -3 -25 3 -8 6
-13 6 -13 1 0 -6 -18 -7 -45 -3 -25 4 -48 4 -50 0 -2 -4 -25 -4 -49 0 -25 4
-51 3 -58 -1 -7 -4 -18 -3 -25 3 -9 7 -13 7 -13 -1 0 -7 -8 -8 -22 -3 -13 5
-36 6 -53 2 -16 -3 -49 -3 -72 1 -23 3 -48 2 -55 -2 -7 -4 -18 -3 -25 3 -8 6
-13 6 -13 1 0 -6 -18 -7 -45 -3 -25 4 -48 4 -50 0 -2 -4 -25 -4 -49 0 -25 4
-51 3 -58 -1 -7 -4 -18 -3 -25 3 -9 7 -13 7 -13 -1 0 -7 -8 -8 -22 -3 -13 5
-36 6 -53 2 -16 -3 -49 -3 -72 1 -24 3 -45 4 -48 1 -3 -3 -5 -436 -5 -963 l0
-958 28 0 c15 -1 38 -2 52 -4 14 -2 34 0 44 3 11 4 37 4 58 0 21 -4 38 -4 38
-1 0 6 40 6 95 -2 17 -2 39 -1 50 3 10 4 36 3 57 0 21 -4 38 -4 38 -1 0 6 40
6 95 -2 17 -2 39 -1 50 3 10 4 36 3 57 0 21 -4 38 -4 38 -1 0 6 40 6 95 -2 17
-2 39 -1 50 3 10 4 36 3 57 0 21 -4 38 -4 38 -1 0 6 40 6 95 -2 17 -2 39 -1
50 3 11 4 32 4 48 -1 17 -5 27 -4 27 3 0 7 4 7 13 0 7 -6 18 -7 26 -3 8 5 25
6 40 2 14 -4 37 -5 51 -1 14 4 34 4 45 0 11 -3 31 -5 45 -3 39 5 101 4 111 -3
5 -3 9 -1 9 3 0 8 35 8 95 0 17 -2 39 -1 50 3 10 4 36 3 57 0 21 -4 38 -4 38
-1 0 6 40 6 95 -2 17 -2 39 -1 50 3 11 4 29 4 41 0 11 -5 27 -4 34 0 9 5 20 4
27 -2 8 -6 13 -6 13 -1 0 6 18 7 44 3 24 -3 53 -3 64 1 26 10 26 10 61 -98 29
-90 71 -200 99 -263 9 -19 17 -40 18 -46 4 -23 135 -275 194 -374 82 -136 148
-234 235 -345 99 -126 100 -127 254 -290 60 -63 192 -187 241 -225 24 -19 56
-45 69 -58 14 -13 38 -31 53 -40 16 -9 28 -20 28 -24 0 -4 6 -8 14 -8 8 0 16
-4 18 -8 1 -4 26 -23 53 -42 28 -19 52 -38 55 -41 26 -31 434 -253 550 -299
29 -12 72 -29 95 -40 22 -10 54 -22 70 -26 17 -4 35 -10 40 -14 22 -16 346
-109 440 -126 17 -3 48 -9 70 -14 22 -5 58 -11 80 -14 22 -4 54 -9 70 -12 17
-3 48 -7 70 -9 22 -2 74 -8 115 -12 94 -10 502 -10 595 0 134 14 170 18 225
27 30 5 73 12 95 16 22 3 43 8 46 10 4 2 24 6 45 9 22 4 47 8 56 11 9 3 25 7
35 9 234 54 502 153 743 275 140 71 392 224 398 241 2 5 10 9 18 9 8 0 14 3
14 8 0 4 18 18 40 32 22 13 40 28 40 32 0 4 5 8 11 8 21 0 241 193 368 322 91
92 188 203 251 287 14 18 34 45 46 59 32 41 174 250 174 256 0 3 15 29 33 58
18 29 38 64 45 78 6 14 16 32 22 40 12 18 119 246 148 315 39 96 101 271 106
305 3 14 28 20 84 20 12 0 29 0 37 0 8 0 23 0 33 0 9 0 31 0 47 1 17 0 35 0
40 0 20 -1 111 -1 148 -1 22 0 43 -2 48 -6 5 -3 9 -1 9 3 0 8 35 8 95 0 17 -2
39 -1 50 3 10 4 36 3 57 0 21 -4 38 -4 38 -1 0 6 40 6 95 -2 17 -2 39 -1 50 3
10 4 36 3 57 0 21 -4 38 -4 38 -1 0 6 40 6 95 -2 17 -2 39 -1 50 3 10 4 36 3
57 0 21 -4 38 -4 38 -1 0 6 40 6 95 -2 17 -2 39 -1 50 3 10 4 36 3 57 0 21 -4
38 -4 38 -1 0 6 40 6 95 -2 17 -2 39 -1 50 3 10 4 36 3 57 0 21 -4 38 -4 38
-1 0 6 40 6 95 -2 17 -2 39 -1 50 3 10 4 36 3 57 0 21 -4 38 -4 38 -1 0 6 48
5 105 -3 11 -1 30 1 42 6 12 4 25 3 28 -1 3 -5 20 -5 39 -1 19 4 37 5 40 2 4
-3 6 427 6 955 0 760 -3 962 -12 966 -7 2 -23 0 -35 -4 -12 -5 -25 -4 -27 0
-3 5 -20 6 -38 2 -18 -4 -52 -4 -75 -1 -23 4 -48 3 -55 -1 -7 -4 -18 -3 -25 3
-8 6 -13 6 -13 1 0 -6 -18 -7 -45 -3 -25 4 -48 4 -50 0 -2 -4 -25 -4 -49 0
-25 4 -51 3 -58 -1 -7 -4 -18 -3 -25 3 -9 7 -13 7 -13 -1 0 -7 -8 -8 -22 -3
-13 5 -36 6 -53 2 -16 -3 -49 -3 -72 1 -23 3 -48 2 -55 -2 -7 -4 -18 -3 -25 3
-8 6 -13 6 -13 1 0 -6 -18 -7 -45 -3 -25 4 -48 4 -50 0 -2 -4 -25 -4 -49 0
-25 4 -51 3 -58 -1 -7 -4 -18 -3 -25 3 -9 7 -13 7 -13 -1 0 -7 -8 -8 -22 -3
-13 5 -36 6 -53 2 -16 -3 -49 -3 -72 1 -23 3 -48 2 -54 -2 -7 -4 -22 -4 -33 1
-12 4 -30 4 -41 0 -11 -4 -32 -4 -46 0 -15 4 -32 4 -39 0 -7 -4 -24 -5 -39 -1
-14 4 -37 5 -51 1 -14 -4 -35 -3 -47 1 -14 5 -23 5 -23 -1 0 -6 -9 -6 -22 -1
-13 4 -34 5 -48 1 -14 -4 -34 -3 -46 1 -11 4 -27 4 -34 -1 -7 -5 -23 -5 -34 0
-12 4 -29 4 -39 1 -10 -4 -43 -4 -72 -1 -29 3 -61 3 -71 0 -10 -4 -33 -4 -51
1 -18 4 -35 3 -38 -1 -3 -5 -13 -6 -23 -4 -42 9 -92 11 -92 4 0 -4 -11 -5 -25
-2 -21 4 -29 17 -55 99 -31 100 -86 241 -128 333 -14 30 -26 57 -27 60 -5 17
-101 200 -144 275 -39 67 -152 236 -200 300 -61 80 -64 84 -82 104 -8 9 -22
27 -31 40 -73 104 -358 381 -518 504 -30 23 -56 45 -58 50 -2 4 -10 7 -18 7
-8 0 -14 4 -14 8 0 4 -18 19 -40 32 -22 14 -40 28 -40 33 0 4 -6 7 -14 7 -8 0
-16 4 -18 8 -3 8 -134 92 -143 92 -4 0 -21 11 -38 24 -89 66 -436 223 -647
292 -134 45 -341 100 -408 109 -18 2 -36 6 -40 8 -4 3 -29 7 -57 11 -27 3 -59
8 -70 10 -11 2 -51 7 -90 11 -38 4 -79 10 -90 12 -23 6 -531 13 -537 8z m330
-1920 c50 -3 102 -8 114 -11 25 -5 55 -11 105 -19 58 -10 217 -67 313 -113
300 -142 549 -390 690 -687 52 -111 54 -115 80 -196 20 -63 25 -84 36 -139 3
-14 7 -32 9 -40 6 -20 16 -102 20 -172 2 -32 7 -62 10 -68 3 -5 3 -10 -2 -10
-4 0 -8 -37 -9 -83 -1 -135 -25 -274 -65 -385 -10 -28 -19 -54 -19 -57 -2 -18
-107 -244 -119 -255 -3 -3 -12 -17 -20 -32 -8 -15 -22 -37 -33 -47 -10 -11
-18 -23 -18 -26 0 -4 -6 -12 -12 -19 -7 -7 -22 -25 -33 -41 -68 -96 -263 -266
-400 -347 -56 -33 -187 -98 -210 -104 -5 -2 -41 -14 -80 -28 -38 -13 -83 -27
-100 -30 -16 -3 -48 -10 -70 -15 -68 -16 -260 -37 -310 -33 -5 1 -44 3 -85 6
-67 4 -202 25 -255 40 -11 3 -38 10 -60 15 -105 26 -312 124 -421 200 -122 85
-252 209 -334 317 -25 32 -48 61 -52 62 -5 2 -8 8 -8 12 0 5 -13 28 -29 52
-55 82 -155 311 -167 383 -1 6 -3 12 -4 15 -16 44 -40 202 -45 298 -2 57 -7
107 -10 113 -4 5 -3 9 2 9 4 0 8 21 7 47 0 27 3 68 7 93 4 25 10 63 13 85 19
130 112 375 189 500 92 150 237 311 367 409 30 22 57 44 58 49 2 4 8 7 14 7 5
0 28 13 51 28 113 77 357 172 507 197 19 3 49 8 65 11 17 3 68 7 114 9 46 3
86 7 89 9 3 3 8 4 12 1 3 -2 48 -7 98 -10z"/>
</g>
</svg>
